<svg width="10" height="10" viewBox="0 0 10 10" fill="none" xmlns="http://www.w3.org/2000/svg">
<path d="M4.62949 4.3C5.74787 4.3 6.65449 3.39338 6.65449 2.275C6.65449 1.15662 5.74787 0.25 4.62949 0.25C3.51112 0.25 2.60449 1.15662 2.60449 2.275C2.60449 3.39338 3.51112 4.3 4.62949 4.3Z" fill="#662BE2"/>
<path d="M7.35155 5.53709C7.17974 5.53709 7.06477 5.74328 6.83493 6.15564L6.77545 6.26232L6.77545 6.26232C6.71012 6.3795 6.67745 6.43809 6.62655 6.47675C6.5756 6.51541 6.51218 6.52976 6.38537 6.55845L6.38534 6.55846L6.26986 6.58459C5.82348 6.68559 5.60029 6.73609 5.54719 6.90684C5.49409 7.0776 5.64625 7.25552 5.95056 7.61137L6.02929 7.70344C6.11576 7.80456 6.159 7.85512 6.17846 7.91767C6.19791 7.98022 6.19137 8.04768 6.17829 8.18259L6.17829 8.1826L6.16639 8.30543C6.12038 8.78021 6.09738 9.0176 6.2364 9.12314C6.37541 9.22867 6.5844 9.13245 7.00234 8.94002L7.11046 8.89023L7.11049 8.89022C7.22925 8.83554 7.28863 8.80821 7.35155 8.80821C7.41448 8.80821 7.47387 8.83555 7.59264 8.89023L7.70076 8.94002L7.70078 8.94003C8.11871 9.13245 8.32768 9.22867 8.46669 9.12314C8.6057 9.01764 8.58271 8.78036 8.53673 8.30587L8.53669 8.30543L8.52481 8.1826C8.51174 8.04768 8.50521 7.98022 8.52467 7.91767C8.54409 7.85512 8.58733 7.80456 8.6738 7.70344L8.75256 7.61137L8.75267 7.61125C9.05689 7.25548 9.20902 7.07758 9.1559 6.90684C9.10281 6.73609 8.87964 6.68559 8.43325 6.58459L8.31774 6.55846L8.31767 6.55845C8.19091 6.52975 8.1275 6.5154 8.07656 6.47675C8.02565 6.43809 7.99299 6.3795 7.92765 6.26232L7.92765 6.26232L7.86817 6.15564C7.63833 5.74328 7.52337 5.53709 7.35155 5.53709Z" fill="#662BE2"/>
<path fill-rule="evenodd" clip-rule="evenodd" d="M6.5099 5.37839C6.58359 5.40355 6.61488 5.48952 6.57697 5.55754L6.48775 5.71756L6.48775 5.71757L6.48775 5.71757C6.38975 5.89334 6.34075 5.98122 6.2644 6.03921C6.18798 6.09719 6.09285 6.11872 5.90264 6.16176L5.90259 6.16177L5.72936 6.20097C5.0598 6.35246 4.72502 6.42821 4.64537 6.68434C4.56572 6.94048 4.79395 7.20737 5.25042 7.74114L5.36851 7.87924C5.49822 8.03092 5.56308 8.10677 5.59226 8.20059C5.62143 8.29442 5.61163 8.3956 5.59202 8.59798L5.59202 8.59798L5.57416 8.78223C5.55407 8.98955 5.38569 9.15295 5.17749 9.15903C5.00471 9.16408 4.82225 9.16666 4.62956 9.16666C1 9.16666 1 8.2526 1 7.12503C1 5.99746 2.62501 5.0834 4.62956 5.0834C5.3179 5.0834 5.96149 5.19119 6.5099 5.37839Z" fill="#662BE2"/>
</svg>
