<svg width="10" height="10" viewBox="0 0 10 10" fill="none" xmlns="http://www.w3.org/2000/svg">
<g clip-path="url(#clip0_800_19327)">
<path d="M2.38563 8.88999H2.26804C1.84153 8.88999 1.62828 8.89 1.49578 8.75749C1.36328 8.62499 1.36328 8.41174 1.36328 7.98523V7.48219C1.36328 7.24763 1.36328 7.13037 1.42353 7.02564C1.48378 6.92087 1.57467 6.86803 1.75645 6.76231C2.95321 6.06623 4.65277 5.67443 5.78716 6.35101C5.86334 6.39647 5.93192 6.45135 5.99046 6.51712C6.24293 6.80072 6.22457 7.22872 5.9336 7.48268C5.87212 7.53629 5.80666 7.577 5.7407 7.59112C5.7949 7.58483 5.84683 7.57764 5.89641 7.56972C6.30871 7.50395 6.65478 7.28364 6.97163 7.04428L7.78917 6.42674C8.07738 6.209 8.50515 6.20896 8.79341 6.4266C9.05294 6.62257 9.13229 6.94521 8.96821 7.20818C8.7769 7.51489 8.50733 7.90724 8.24847 8.14696C7.98926 8.38704 7.60338 8.60138 7.28834 8.75342C6.93933 8.92189 6.55381 9.01892 6.16164 9.08244C5.36631 9.21114 4.53746 9.19151 3.75019 9.02933C3.30514 8.93763 2.84292 8.88999 2.38563 8.88999Z" fill="white"/>
<path d="M4.52619 1.40205C4.73728 1.02334 4.84286 0.833984 5.00065 0.833984C5.15844 0.833984 5.26403 1.02334 5.47511 1.40205L5.52974 1.50002C5.58974 1.60764 5.61974 1.66145 5.66649 1.69695C5.71328 1.73246 5.77153 1.74563 5.88799 1.77199L5.99407 1.79599C6.40403 1.88874 6.60899 1.93512 6.65774 2.09194C6.70653 2.24876 6.56678 2.41216 6.28732 2.73897L6.21499 2.82352C6.13557 2.91639 6.09586 2.96283 6.07803 3.02027C6.06015 3.07772 6.06615 3.13967 6.07815 3.26358L6.08907 3.37638C6.13132 3.81242 6.15249 4.03043 6.02478 4.12736C5.89711 4.22428 5.70519 4.13591 5.32136 3.95918L5.22207 3.91346C5.11299 3.86323 5.05844 3.83813 5.00065 3.83813C4.94286 3.83813 4.88832 3.86324 4.77924 3.91346L4.67994 3.95918C4.29611 4.13591 4.10418 4.22428 3.97651 4.12736C3.84884 4.03043 3.86997 3.81242 3.91222 3.37638L3.92315 3.26358C3.93516 3.13967 3.94116 3.07772 3.9233 3.02027C3.90543 2.96283 3.86572 2.91639 3.78631 2.82352L3.714 2.73897C3.43453 2.41216 3.29479 2.24876 3.34356 2.09194C3.39232 1.93512 3.59729 1.88874 4.00724 1.79599L4.1133 1.77199C4.22978 1.74563 4.28803 1.73246 4.33482 1.69695C4.38157 1.66145 4.41157 1.60764 4.47157 1.50002L4.52619 1.40205ZM8.09674 3.20135C8.20232 3.01199 8.25507 2.91732 8.33399 2.91732C8.4129 2.91732 8.46565 3.012 8.57124 3.20135L8.59853 3.25034C8.62853 3.30415 8.64353 3.33105 8.6669 3.3488C8.69028 3.36656 8.7194 3.37314 8.77765 3.38632L8.83069 3.39832C9.03565 3.4447 9.13815 3.46788 9.16253 3.5463C9.1869 3.62471 9.11707 3.70641 8.97732 3.86981L8.94115 3.91208C8.90144 3.95852 8.88161 3.98174 8.87265 4.01046C8.86374 4.03918 8.86674 4.07016 8.87274 4.13211L8.8782 4.18853C8.89932 4.40653 8.9099 4.51553 8.84607 4.56398C8.78224 4.61244 8.68628 4.56828 8.49436 4.4799L8.44469 4.45707C8.39015 4.43194 8.3629 4.4194 8.33399 4.4194C8.30507 4.4194 8.27782 4.43194 8.22328 4.45707L8.17361 4.4799C7.9817 4.56828 7.88574 4.61244 7.8219 4.56398C7.75807 4.51553 7.76865 4.40653 7.78978 4.18853L7.79524 4.13211C7.80124 4.07016 7.80424 4.03918 7.79532 4.01046C7.78636 3.98174 7.76653 3.95852 7.72682 3.91208L7.69065 3.86981C7.55094 3.70641 7.48107 3.62471 7.50544 3.5463C7.52982 3.46788 7.63232 3.4447 7.83728 3.39832L7.89032 3.38632C7.94857 3.37314 7.97769 3.36656 8.00107 3.3488C8.02444 3.33105 8.03945 3.30415 8.06945 3.25034L8.09674 3.20135ZM1.43008 3.20135C1.53564 3.01199 1.58842 2.91732 1.66732 2.91732C1.74622 2.91732 1.799 3.012 1.90456 3.20135L1.93187 3.25034C1.96186 3.30415 1.97686 3.33105 2.00024 3.3488C2.02362 3.36656 2.05275 3.37314 2.11099 3.38632L2.16402 3.39832C2.369 3.4447 2.47149 3.46788 2.49587 3.5463C2.52025 3.62471 2.45038 3.70641 2.31064 3.86981L2.27449 3.91208C2.23478 3.95852 2.21493 3.98174 2.206 4.01046C2.19707 4.03918 2.20007 4.07016 2.20607 4.13211L2.21154 4.18853C2.23266 4.40653 2.24323 4.51553 2.17939 4.56398C2.11555 4.61244 2.0196 4.56828 1.82768 4.4799L1.77803 4.45707C1.72349 4.43194 1.69622 4.4194 1.66732 4.4194C1.63842 4.4194 1.61115 4.43194 1.55661 4.45707L1.50696 4.4799C1.31504 4.56828 1.21909 4.61244 1.15525 4.56398C1.09141 4.51553 1.10198 4.40653 1.1231 4.18853L1.12857 4.13211C1.13457 4.07016 1.13757 4.03918 1.12864 4.01046C1.11971 3.98174 1.09986 3.95852 1.06014 3.91208L1.02399 3.86981C0.884257 3.70641 0.814386 3.62471 0.838769 3.5463C0.863153 3.46788 0.96564 3.4447 1.17062 3.39832L1.22364 3.38632C1.28189 3.37314 1.31102 3.36656 1.3344 3.3488C1.35778 3.33105 1.37278 3.30415 1.40277 3.25034L1.43008 3.20135Z" fill="white"/>
</g>
<defs>
<clipPath id="clip0_800_19327">
<rect width="10" height="10" fill="white"/>
</clipPath>
</defs>
</svg>
