<svg width="11" height="9" viewBox="0 0 11 9" fill="none" xmlns="http://www.w3.org/2000/svg">
<path d="M5.49964 0C5.777 0 6.03288 0.146495 6.17351 0.386746L10.3926 7.57476C10.5352 7.81697 10.5352 8.11582 10.3965 8.35802C10.2578 8.60023 9.99801 8.75063 9.71869 8.75063H1.28058C1.00127 8.75063 0.741484 8.60023 0.602802 8.35802C0.46412 8.11582 0.466074 7.81501 0.606709 7.57476L4.82576 0.386746C4.9664 0.146495 5.22227 0 5.49964 0ZM5.49964 2.50018C5.23985 2.50018 5.03085 2.70918 5.03085 2.96896V5.15662C5.03085 5.4164 5.23985 5.6254 5.49964 5.6254C5.75942 5.6254 5.96842 5.4164 5.96842 5.15662V2.96896C5.96842 2.70918 5.75942 2.50018 5.49964 2.50018ZM6.12468 6.87549C6.12468 6.70972 6.05883 6.55074 5.94161 6.43352C5.82439 6.3163 5.66541 6.25045 5.49964 6.25045C5.33387 6.25045 5.17488 6.3163 5.05766 6.43352C4.94045 6.55074 4.87459 6.70972 4.87459 6.87549C4.87459 7.04127 4.94045 7.20025 5.05766 7.31747C5.17488 7.43469 5.33387 7.50054 5.49964 7.50054C5.66541 7.50054 5.82439 7.43469 5.94161 7.31747C6.05883 7.20025 6.12468 7.04127 6.12468 6.87549Z" fill="#8A3333"/>
</svg>
