<svg width="10" height="10" viewBox="0 0 10 10" fill="none" xmlns="http://www.w3.org/2000/svg">
<path d="M6.2452 1.89649C7.06671 2.26359 7.73738 2.90146 8.14518 3.70355C8.55298 4.50564 8.6732 5.42337 8.48577 6.30343C8.29834 7.1835 7.81461 7.9726 7.11537 8.53892C6.41614 9.10524 5.54376 9.41449 4.64396 9.41499C3.8743 9.41496 3.1216 9.18889 2.47929 8.76485C1.83698 8.3408 1.33335 7.73746 1.03092 7.02972C0.72848 6.32197 0.640558 5.54098 0.778063 4.78371C0.915569 4.02644 1.27245 3.32622 1.8044 2.76998C2.17097 3.28185 2.65467 3.6986 3.21513 3.98544C3.22495 3.3561 3.3735 2.73668 3.6502 2.17134C3.9269 1.60601 4.32492 1.10869 4.8159 0.714844C5.19061 1.21741 5.68065 1.62251 6.24473 1.89601L6.2452 1.89649Z" fill="#E38440"/>
<path d="M4.64371 7.98605C5.09683 7.98588 5.53295 7.81349 5.86372 7.5038C6.1945 7.19411 6.3952 6.77028 6.42517 6.31815C6.45514 5.86602 6.31215 5.4194 6.02515 5.06876C5.73815 4.71812 5.3286 4.48967 4.87947 4.42969C4.38774 4.86968 4.06374 5.46652 3.96263 6.11857C3.59574 6.02881 3.2504 5.8669 2.94673 5.64229C2.85855 5.91056 2.83524 6.19592 2.87871 6.47494C2.92218 6.75397 3.03119 7.01871 3.19681 7.24744C3.36242 7.47618 3.5799 7.66238 3.83142 7.79077C4.08294 7.91916 4.36132 7.98609 4.64371 7.98605Z" fill="#FFFF00"/>
</svg>
