<svg width="24" height="24" viewBox="0 0 24 24" fill="none" xmlns="http://www.w3.org/2000/svg">
<path opacity="0.45" d="M4.00029 9.67444C4.00029 5.43597 7.35815 2.00002 11.5003 2.00002C15.6424 2.00002 19.0003 5.43597 19.0003 9.67444C19.0003 11.9468 18.0343 13.9892 16.5017 15.3934C15.9909 15.8614 15.6125 16.2082 15.3443 16.4598C15.2102 16.5855 15.1077 16.6838 15.032 16.7592C14.9943 16.7968 14.9654 16.8266 14.9439 16.8496C14.9333 16.861 14.9253 16.8699 14.9195 16.8766C14.9136 16.8834 14.9111 16.8864 14.9111 16.8864C14.6746 17.1851 14.6234 17.2622 14.5929 17.332C14.5624 17.4018 14.5405 17.4922 14.4808 17.8717C14.4573 18.0216 14.4548 18.2782 14.4548 18.9767V19.0067C14.4549 19.4158 14.4549 19.7687 14.4292 20.0583C14.4021 20.3645 14.3421 20.6677 14.1808 20.9535C14.0013 21.2717 13.7431 21.5359 13.4321 21.7196C13.1528 21.8846 12.8565 21.946 12.5573 21.9738C12.2743 22 11.9295 22 11.5297 22H11.471C11.0712 22 10.7263 22 10.4433 21.9738C10.1441 21.946 9.84776 21.8846 9.56847 21.7196C9.25752 21.5359 8.99931 21.2717 8.81978 20.9535C8.65854 20.6677 8.59849 20.3645 8.57136 20.0583C8.54572 19.7687 8.54573 19.4158 8.54574 19.0067V18.9767C8.54574 18.2782 8.54334 18.0216 8.51978 17.8717C8.46011 17.4922 8.43816 17.4018 8.40768 17.332C8.37719 17.2622 8.326 17.1851 8.08949 16.8864C8.08949 16.8864 8.08678 16.8831 8.08109 16.8766C8.07528 16.8699 8.06728 16.861 8.05664 16.8496C8.03515 16.8266 8.0063 16.7968 7.96859 16.7592C7.89291 16.6838 7.79039 16.5855 7.6563 16.4598C7.38811 16.2082 7.00969 15.8614 6.49888 15.3934C4.96631 13.9892 4.00029 11.9468 4.00029 9.67444Z" fill="#40AEE3"/>
<path d="M13.0851 19.6748H9.91492C9.91789 19.7718 9.92238 19.8565 9.92913 19.9327C9.94768 20.1422 9.97897 20.2182 10.0004 20.2562C10.0603 20.3623 10.1463 20.4504 10.25 20.5116C10.2871 20.5335 10.3615 20.5656 10.5661 20.5845C10.7802 20.6044 11.0626 20.6051 11.5 20.6051C11.9374 20.6051 12.2198 20.6044 12.4339 20.5845C12.6385 20.5656 12.7128 20.5335 12.75 20.5116C12.8536 20.4504 12.9397 20.3623 12.9996 20.2562C13.021 20.2182 13.0523 20.1422 13.0709 19.9327C13.0776 19.8565 13.0821 19.7718 13.0851 19.6748ZM12.6105 8.17688C12.9169 8.40084 12.9878 8.83658 12.769 9.15012L11.591 10.8376H12.9934C13.2488 10.8376 13.4828 10.9837 13.5996 11.2161C13.7165 11.4484 13.6966 11.7282 13.5482 11.9408L11.6001 14.7315C11.3813 15.0451 10.9554 15.1177 10.649 14.8937C10.3426 14.6698 10.2716 14.234 10.4905 13.9205L11.6685 12.233H10.2661C10.0107 12.233 9.77671 12.0869 9.65984 11.8545C9.54298 11.6222 9.56283 11.3424 9.71128 11.1298L11.6593 8.33909C11.8782 8.02555 12.304 7.95292 12.6105 8.17688Z" fill="#40AEE3"/>
</svg>
