<svg width="10" height="10" viewBox="0 0 10 10" fill="none" xmlns="http://www.w3.org/2000/svg">
<g clip-path="url(#clip0_800_19389)">
<path d="M7.69568 7.01315L7.85817 8.32982C7.89984 8.67565 7.52901 8.91732 7.23317 8.73815L5.79151 7.87982C5.69151 7.82148 5.66651 7.69648 5.72068 7.59648C5.92901 7.21315 6.04151 6.77982 6.04151 6.34648C6.04151 4.82148 4.73318 3.57982 3.12483 3.57982C2.79567 3.57982 2.47483 3.62982 2.17483 3.72982C2.02067 3.77982 1.87067 3.63815 1.90817 3.47982C2.28733 1.96315 3.74567 0.833984 5.48734 0.833984C7.52068 0.833984 9.16651 2.37148 9.16651 4.26732C9.16651 5.39232 8.58734 6.38815 7.69568 7.01315Z" fill="#2E5CFF"/>
<path d="M5.41732 6.34479C5.41732 6.84063 5.23398 7.29896 4.92565 7.66146C4.51315 8.16146 3.85898 8.48229 3.12565 8.48229L2.03815 9.12812C1.85482 9.24062 1.62148 9.08646 1.64648 8.87396L1.75065 8.05312C1.19232 7.66562 0.833984 7.04479 0.833984 6.34479C0.833984 5.61146 1.22565 4.96562 1.82565 4.58229C2.19648 4.34062 2.64232 4.20312 3.12565 4.20312C4.39232 4.20312 5.41732 5.16146 5.41732 6.34479Z" fill="#2E5CFF"/>
</g>
<defs>
<clipPath id="clip0_800_19389">
<rect width="10" height="10" fill="white"/>
</clipPath>
</defs>
</svg>
