<svg width="15" height="15" viewBox="0 0 15 15" fill="none" xmlns="http://www.w3.org/2000/svg">
<path d="M5.53571 4.60938C5.53571 3.5015 6.41473 2.60417 7.5 2.60417C8.28326 2.60417 8.95848 3.07038 9.27522 3.74964C9.46183 4.15068 9.9308 4.32113 10.3212 4.13063C10.7116 3.94014 10.881 3.46139 10.6944 3.06286C10.1272 1.84469 8.91183 1 7.5 1C5.54799 1 3.96429 2.6167 3.96429 4.60938V5.8125H3.57143C2.70469 5.8125 2 6.53187 2 7.41667V12.2292C2 13.114 2.70469 13.8333 3.57143 13.8333H11.4286C12.2953 13.8333 13 13.114 13 12.2292V7.41667C13 6.53187 12.2953 5.8125 11.4286 5.8125H5.53571V4.60938Z" fill="#0B9848"/>
</svg>
