<svg width="11" height="13" viewBox="0 0 11 13" fill="none" xmlns="http://www.w3.org/2000/svg">
<path d="M3.53571 3.60938C3.53571 2.5015 4.41473 1.60417 5.5 1.60417C6.28326 1.60417 6.95848 2.07038 7.27522 2.74964C7.46183 3.15068 7.9308 3.32113 8.32121 3.13063C8.71161 2.94014 8.88103 2.46139 8.69442 2.06286C8.12723 0.844694 6.91183 0 5.5 0C3.54799 0 1.96429 1.6167 1.96429 3.60938V4.8125H1.57143C0.704687 4.8125 0 5.53187 0 6.41667V11.2292C0 12.114 0.704687 12.8333 1.57143 12.8333H9.42857C10.2953 12.8333 11 12.114 11 11.2292V6.41667C11 5.53187 10.2953 4.8125 9.42857 4.8125H3.53571V3.60938Z" fill="#0B9848"/>
</svg>
