<svg width="15" height="15" viewBox="0 0 15 15" fill="none" xmlns="http://www.w3.org/2000/svg">
<path d="M13 3.26367V4.41211C13 5.46963 10.5373 6.32617 7.5 6.32617C4.46272 6.32617 2 5.46963 2 4.41211V3.26367C2 2.20615 4.46272 1.34961 7.5 1.34961C10.5373 1.34961 13 2.20615 13 3.26367ZM11.6545 6.48647C12.1652 6.30942 12.6342 6.08213 13 5.8022V8.24023C13 9.29775 10.5373 10.1543 7.5 10.1543C4.46272 10.1543 2 9.29775 2 8.24023V5.8022C2.36585 6.08452 2.83482 6.30942 3.34554 6.48647C4.44799 6.86929 5.91629 7.0918 7.5 7.0918C9.08371 7.0918 10.552 6.86929 11.6545 6.48647ZM2 9.63032C2.36585 9.91265 2.83482 10.1375 3.34554 10.3146C4.44799 10.6974 5.91629 10.9199 7.5 10.9199C9.08371 10.9199 10.552 10.6974 11.6545 10.3146C12.1652 10.1375 12.6342 9.91025 13 9.63032V11.6855C13 12.7431 10.5373 13.5996 7.5 13.5996C4.46272 13.5996 2 12.7431 2 11.6855V9.63032Z" fill="#C2C2C2"/>
</svg>
