<svg width="15" height="15" viewBox="0 0 15 15" fill="none" xmlns="http://www.w3.org/2000/svg">
<path fill-rule="evenodd" clip-rule="evenodd" d="M8.90467 1.2963C10.1583 1.85126 11.0357 3.12616 11.0357 4.60938V5.8125H11.4286C12.2953 5.8125 13 6.53187 13 7.41667V12.2292C13 13.114 12.2953 13.8333 11.4286 13.8333H3.57143C2.70469 13.8333 2 13.114 2 12.2292V7.41667C2 6.53187 2.70469 5.8125 3.57143 5.8125H3.96429V4.60938C3.96429 2.6167 5.54799 1 7.5 1C7.99948 1 8.47437 1.10572 8.90467 1.2963ZM5.72252 3.75446C5.6027 4.01375 5.53571 4.30354 5.53571 4.60938V5.8125H9.46429V4.60938C9.46429 4.30359 9.39732 4.01384 9.27754 3.75458L9.27522 3.74964C9.17579 3.53639 9.04102 3.34415 8.87867 3.18073C8.52411 2.82414 8.03733 2.60417 7.5 2.60417C6.96267 2.60417 6.47589 2.82414 6.12133 3.18073C5.95898 3.34415 5.82421 3.53639 5.72478 3.74964L5.72252 3.75446Z" fill="#666666"/>
</svg>
