<svg width="11" height="13" viewBox="0 0 11 13" fill="none" xmlns="http://www.w3.org/2000/svg">
<path d="M11 2.26406V3.4125C11 4.47002 8.53728 5.32656 5.5 5.32656C2.46272 5.32656 0 4.47002 0 3.4125V2.26406C0 1.20654 2.46272 0.349998 5.5 0.349998C8.53728 0.349998 11 1.20654 11 2.26406ZM9.65446 5.48686C10.1652 5.30981 10.6342 5.08252 11 4.80259V7.24062C11 8.29814 8.53728 9.15469 5.5 9.15469C2.46272 9.15469 0 8.29814 0 7.24062V4.80259C0.365848 5.08491 0.834821 5.30981 1.34554 5.48686C2.44799 5.86968 3.91629 6.09219 5.5 6.09219C7.08371 6.09219 8.55201 5.86968 9.65446 5.48686ZM0 8.63071C0.365848 8.91304 0.834821 9.13794 1.34554 9.31499C2.44799 9.6978 3.91629 9.92031 5.5 9.92031C7.08371 9.92031 8.55201 9.6978 9.65446 9.31499C10.1652 9.13794 10.6342 8.91064 11 8.63071V10.6859C11 11.7435 8.53728 12.6 5.5 12.6C2.46272 12.6 0 11.7435 0 10.6859V8.63071Z" fill="#C2C2C2"/>
</svg>
