<svg width="15" height="15" viewBox="0 0 15 15" fill="none" xmlns="http://www.w3.org/2000/svg">
<path d="M5.27875 2.9496L7.50044 5.26899L9.72213 2.9496H5.27875ZM10.7479 3.62547L8.90962 5.54333H12.185L10.7479 3.62547ZM12.0175 6.74044H7.50044H2.98342L7.50044 11.6361L12.0175 6.74044ZM2.81584 5.54333H6.09125L4.25296 3.62547L2.81584 5.54333ZM13.843 6.54341L7.95239 12.928C7.83813 13.0527 7.6731 13.125 7.50044 13.125C7.32778 13.125 7.16528 13.0527 7.04848 12.928L1.15783 6.54341C0.96232 6.33142 0.947086 6.01469 1.11974 5.78524L3.96351 1.99441C4.07776 1.84228 4.26058 1.75 4.45355 1.75H10.5473C10.7403 1.75 10.9231 1.83978 11.0374 1.99441L13.8811 5.78524C14.0538 6.01469 14.036 6.33142 13.843 6.54341Z" fill="#DAB204"/>
</svg>
