<svg width="13" height="13" viewBox="0 0 13 13" fill="none" xmlns="http://www.w3.org/2000/svg">
<path d="M4.27875 1.9496L6.50044 4.26899L8.72213 1.9496H4.27875ZM9.74791 2.62547L7.90962 4.54333H11.185L9.74791 2.62547ZM11.0175 5.74044H6.50044H1.98342L6.50044 10.6361L11.0175 5.74044ZM1.81584 4.54333H5.09125L3.25296 2.62547L1.81584 4.54333ZM12.843 5.54341L6.95239 11.928C6.83813 12.0527 6.6731 12.125 6.50044 12.125C6.32778 12.125 6.16528 12.0527 6.04848 11.928L0.157829 5.54341C-0.0376799 5.33142 -0.0529144 5.01469 0.119743 4.78524L2.96351 0.994409C3.07776 0.842277 3.26058 0.75 3.45355 0.75H9.54733C9.7403 0.75 9.92311 0.839783 10.0374 0.994409L12.8811 4.78524C13.0538 5.01469 13.036 5.33142 12.843 5.54341Z" fill="#DAB204"/>
</svg>
