<svg width="10" height="10" viewBox="0 0 10 10" fill="none" xmlns="http://www.w3.org/2000/svg">
<path d="M4.63047 4.3C5.74885 4.3 6.65547 3.39338 6.65547 2.275C6.65547 1.15662 5.74885 0.25 4.63047 0.25C3.51209 0.25 2.60547 1.15662 2.60547 2.275C2.60547 3.39338 3.51209 4.3 4.63047 4.3Z" fill="white"/>
<path d="M7.35189 5.53711C7.18007 5.53711 7.06511 5.74329 6.83527 6.15565L6.77579 6.26234L6.77578 6.26234C6.71045 6.37952 6.67779 6.43811 6.62688 6.47677C6.57594 6.51542 6.51252 6.52977 6.38571 6.55847L6.38568 6.55848L6.27019 6.5846C5.82382 6.6856 5.60063 6.7361 5.54753 6.90685C5.49443 7.07761 5.64659 7.25554 5.9509 7.61139L6.02963 7.70345C6.1161 7.80457 6.15934 7.85514 6.17879 7.91769C6.19824 7.98024 6.1917 8.04769 6.17863 8.18261L6.17863 8.18261L6.16673 8.30545C6.12072 8.78023 6.09772 9.01762 6.23673 9.12315C6.37575 9.22869 6.58473 9.13247 7.00268 8.94003L7.11079 8.89025L7.11083 8.89023C7.22958 8.83556 7.28897 8.80822 7.35189 8.80822C7.41481 8.80822 7.4742 8.83556 7.59298 8.89025L7.7011 8.94003L7.70111 8.94004C8.11905 9.13247 8.32801 9.22869 8.46702 9.12315C8.60604 9.01765 8.58305 8.78037 8.53707 8.30588L8.53703 8.30545L8.52514 8.18261C8.51208 8.0477 8.50554 7.98024 8.52501 7.91769C8.54442 7.85514 8.58766 7.80457 8.67413 7.70345L8.7529 7.61139L8.753 7.61127C9.05722 7.2555 9.20935 7.07759 9.15623 6.90685C9.10315 6.7361 8.87998 6.6856 8.43359 6.5846L8.31808 6.55848L8.31801 6.55846C8.19124 6.52977 8.12783 6.51542 8.07689 6.47677C8.02599 6.43811 7.99332 6.37952 7.92799 6.26234L7.92799 6.26234L7.86851 6.15565C7.63867 5.74329 7.5237 5.53711 7.35189 5.53711Z" fill="white"/>
<path fill-rule="evenodd" clip-rule="evenodd" d="M6.5099 5.37897C6.58359 5.40412 6.61488 5.4901 6.57697 5.55812V5.55812L6.48775 5.71814L6.48775 5.71815L6.48775 5.71815C6.38975 5.89391 6.34075 5.9818 6.2644 6.03979C6.18798 6.09777 6.09285 6.1193 5.90264 6.16234L5.90259 6.16235L5.72936 6.20155C5.0598 6.35304 4.72502 6.42879 4.64537 6.68492C4.56572 6.94106 4.79395 7.20795 5.25042 7.74172L5.36851 7.87982C5.49822 8.0315 5.56308 8.10735 5.59226 8.20117C5.62143 8.295 5.61163 8.39618 5.59202 8.59856L5.59202 8.59856L5.57416 8.78281V8.78281C5.55407 8.99013 5.38569 9.15353 5.17749 9.15961C5.00471 9.16466 4.82225 9.16724 4.62956 9.16724C1 9.16724 1 8.25318 1 7.12561C1 5.99804 2.62501 5.08398 4.62956 5.08398C5.31791 5.08398 5.96149 5.19177 6.5099 5.37897Z" fill="white"/>
</svg>
